# xmcd
#
# Track frame offsets: 
#        150
#        20622
#        39825
#        55950
#        78115
#        94840
#        115765
#        130315
#        151090
#        166125
#
# Disc length: 2505 seconds
#
# Revision: 2
# Processed by: cddbd v1.5.2PL0 Copyright (c) Steve Scherf et al.
# Submitted via: ExactAudioCopyFreeDBPlugin 1.0
#
DISCID=6c09c70a
DTITLE=Various Artist - Blues Hotel (Rounder EasyDisc)
DYEAR=1999
DGENRE=Blues
TTITLE0=Preston Shannon - Round Midnight
TTITLE1=Pat Boyack and The Prowlers - Sneakin' Out
TTITLE2=Bobby Parker - Watch Your Step
TTITLE3=Ron Levy's Wild Kingdom - Why You Stay Out So Late?
TTITLE4=Jordan Patterson - Blues Hotel
TTITLE5=Walter "Wolfman" Washington - At Night in the City
TTITLE6=Charlie Sayles - Kick Your Shoes Off
TTITLE7=James Harman - Do Not Disturb
TTITLE8=Alanda Williams - I Wanna Tell Ya
TTITLE9=Tutu Jones - I'm Not Your Fool
EXTD=
EXTT0=
EXTT1=
EXTT2=
EXTT3=
EXTT4=
EXTT5=
EXTT6=
EXTT7=
EXTT8=
EXTT9=
PLAYORDER=
